/* XPM */
static char * bottom_right_inactive_xpm[] = {
"24 5 3 1",
" 	c None",
".	c #1A1C23",
"#	c #1A1C23",
".......................#",
".......................#",
".......................#",
".......................#",
"########################"};
